# xmcd
#
# Track frame offsets: 
#        150
#        12922
#        22025
#        37487
#        52381
#        65257
#        81252
#        96930
#        112169
#        125082
#
# Disc length: 1853 seconds
#
# Revision: 0
# Processed by: cddbd v1.5.2PL0 Copyright (c) Steve Scherf et al.
# Submitted via: ExactAudioCopy v0.99pb5
#
DISCID=97073b0a
DTITLE=B. B. King - How blue can you get
DYEAR=2005
DGENRE=Blues
TTITLE0=Please love me
TTITLE1=Woke up this morning (My baby's gone)
TTITLE2=How blue can you get
TTITLE3=B. B. boogie
TTITLE4=The other night blues
TTITLE5=Long nights
TTITLE6=The letter
TTITLE7=Precious lord
TTITLE8=I'm working on the building
TTITLE9=Save a seat for me
EXTD=
EXTT0=
EXTT1=
EXTT2=
EXTT3=
EXTT4=
EXTT5=
EXTT6=
EXTT7=
EXTT8=
EXTT9=
PLAYORDER=
